HIERARCHY
ROOT Hips
{
	OFFSET 0.000000 0.000000 0.000000
	CHANNELS 6 Xposition Yposition Zposition Zrotation Yrotation Xrotation 
	JOINT LHipJoint
	{
		OFFSET 0.000000 0.000000 0.000000
		CHANNELS 3 Zrotation Yrotation Xrotation
		JOINT LeftUpLeg
		{
			OFFSET 1.363060 -1.794630 0.839290
			CHANNELS 3 Zrotation Yrotation Xrotation
			JOINT LeftLeg
			{
				OFFSET 2.448110 -6.726130 0.000000
				CHANNELS 3 Zrotation Yrotation Xrotation
				JOINT LeftFoot
				{
					OFFSET 2.562200 -7.039590 0.000000
					CHANNELS 3 Zrotation Yrotation Xrotation
					JOINT LeftToeBase
					{
						OFFSET 0.157640 -0.433110 2.322550
						CHANNELS 3 Zrotation Yrotation Xrotation
						End Site
						{
							OFFSET 0.000000 0.000000 0.000000
						}
					}
				}
			}
		}
	}
	JOINT RHipJoint
	{
		OFFSET 0.000000 0.000000 0.000000
		CHANNELS 3 Zrotation Yrotation Xrotation
		JOINT RightUpLeg
		{
			OFFSET -1.305520 -1.794630 0.839290
			CHANNELS 3 Zrotation Yrotation Xrotation
			JOINT RightLeg
			{
				OFFSET -2.542530 -6.985550 0.000000
				CHANNELS 3 Zrotation Yrotation Xrotation
				JOINT RightFoot
				{
					OFFSET -2.568260 -7.056230 0.000000
					CHANNELS 3 Zrotation Yrotation Xrotation
					JOINT RightToeBase
					{
						OFFSET -0.164730 -0.452590 2.363150
						CHANNELS 3 Zrotation Yrotation Xrotation
						End Site
						{
							OFFSET 0.000000 0.000000 0.000000
						}
					}
				}
			}
		}
	}
	JOINT LowerBack
	{
		OFFSET 0.000000 0.000000 0.000000
		CHANNELS 3 Zrotation Yrotation Xrotation
		JOINT Spine
		{
			OFFSET 0.028270 2.035590 -0.193380
			CHANNELS 3 Zrotation Yrotation Xrotation
			JOINT Spine1
			{
				OFFSET 0.056720 2.048850 -0.042750
				CHANNELS 3 Zrotation Yrotation Xrotation
				JOINT Neck
				{
					OFFSET 0.000000 0.000000 0.000000
					CHANNELS 3 Zrotation Yrotation Xrotation
					JOINT Neck1
					{
						OFFSET -0.054170 1.746240 0.172020
						CHANNELS 3 Zrotation Yrotation Xrotation
						JOINT Head
						{
							OFFSET 0.104070 1.761360 -0.123970
							CHANNELS 3 Zrotation Yrotation Xrotation
							End Site
							{
								OFFSET 0.000000 0.000000 0.000000
							}
						}
					}
				}
				JOINT LeftShoulder
				{
					OFFSET 0.000000 0.000000 0.000000
					CHANNELS 3 Zrotation Yrotation Xrotation
					JOINT LeftArm
					{
						OFFSET 3.362410 1.200890 -0.311210
						CHANNELS 3 Zrotation Yrotation Xrotation
						JOINT LeftForeArm
						{
							OFFSET 4.983000 -0.000000 -0.000000
							CHANNELS 3 Zrotation Yrotation Xrotation
							JOINT LeftHand
							{
								OFFSET 3.483560 -0.000000 -0.000000
								CHANNELS 3 Zrotation Yrotation Xrotation
								JOINT LeftFingerBase
								{
									OFFSET 0.000000 0.000000 0.000000
									CHANNELS 3 Zrotation Yrotation Xrotation
									JOINT LeftHandIndex1
									{
										OFFSET 0.715260 -0.000000 -0.000000
										CHANNELS 3 Zrotation Yrotation Xrotation
										End Site
										{
											OFFSET 0.000000 0.000000 0.000000
										}
									}
								}
								JOINT LThumb
								{
									OFFSET 0.000000 0.000000 0.000000
									CHANNELS 3 Zrotation Yrotation Xrotation
									End Site
									{
										OFFSET 0.000000 0.000000 0.000000
									}
								}
							}
						}
					}
				}
				JOINT RightShoulder
				{
					OFFSET 0.000000 0.000000 0.000000
					CHANNELS 3 Zrotation Yrotation Xrotation
					JOINT RightArm
					{
						OFFSET -3.136600 1.374050 -0.404650
						CHANNELS 3 Zrotation Yrotation Xrotation
						JOINT RightForeArm
						{
							OFFSET -5.241900 -0.000000 -0.000000
							CHANNELS 3 Zrotation Yrotation Xrotation
							JOINT RightHand
							{
								OFFSET -3.444170 -0.000000 -0.000000
								CHANNELS 3 Zrotation Yrotation Xrotation
								JOINT RightFingerBase
								{
									OFFSET 0.000000 0.000000 0.000000
									CHANNELS 3 Zrotation Yrotation Xrotation
									JOINT RightHandIndex1
									{
										OFFSET -0.622530 -0.000000 -0.000000
										CHANNELS 3 Zrotation Yrotation Xrotation
										End Site
										{
											OFFSET 0.000000 0.000000 0.000000
										}
									}
								}
								JOINT RThumb
								{
									OFFSET 0.000000 0.000000 0.000000
									CHANNELS 3 Zrotation Yrotation Xrotation
									End Site
									{
										OFFSET 0.000000 0.000000 0.000000
									}
								}
							}
						}
					}
				}
			}
		}
	}
}
MOTION
Frames: 12
Frame Time: 0.008333
10.657553 14.082147 -31.699700 72.529152 75.045890 91.299861 -15.156649 5.629708 -0.029138 6.080243 -8.211311 -50.657326 8.426003 10.467963 55.176428 -0.696485 -12.090016 -18.716119 1.137259 8.024541 -26.322112 -13.190833 -8.016499 -3.093923 18.465673 26.517851 -65.291077 -10.400593 -20.101905 79.060451 -5.352968 10.828305 -9.121724 2.190394 0.307081 17.282956 20.846246 0.742086 10.252444 -2.912296 -5.851761 -3.223488 -12.219882 -3.772063 25.589990 -5.687201 -3.137900 -26.439462 -2.062676 -2.409434 9.043207 37.063149 -16.483975 -5.252909 5.208013 17.489798 15.978654 -66.379122 -51.272447 -36.784502 -4.970448 -35.924403 30.906244 -9.314390 -30.453154 7.066781 0.000001 -0.000001 -0.000001 0.000000 -0.000000 0.000000 -0.000000 0.000000 -0.000000 -17.244061 -5.828814 2.535352 69.093216 33.731566 8.597971 9.209696 45.825607 23.096503 -30.805495 34.099749 -5.004136 0.000002 0.000001 -0.000002 0.000000 -0.000000 0.000000 -0.000000 0.000000 0.000000 
10.625270 14.083348 -31.821772 69.556308 75.091722 88.220303 -15.848014 3.537463 -0.614295 7.599268 -5.573145 -49.739467 7.061046 11.763450 55.656400 -0.062171 -12.469568 -20.069096 0.455691 9.539658 -26.515843 -13.047488 -7.843365 -3.494970 18.365216 25.679367 -65.644843 -10.700853 -20.568644 79.649131 -4.678176 10.030252 -7.758452 3.025202 -1.987598 14.768787 20.986888 0.498863 10.777062 -2.803063 -6.396678 -3.276938 -12.201176 -4.142743 27.462038 -5.608259 -3.487975 -28.265991 -2.098836 -2.688982 9.207012 36.332438 -17.098311 -5.509170 4.607653 19.886772 19.574524 -65.605673 -58.137544 -37.479903 -5.450686 -35.436659 31.969778 -8.022383 -31.538193 6.964947 0.000001 -0.000001 -0.000001 -0.000000 -0.000000 0.000000 0.000000 0.000000 -0.000000 -17.203497 -6.654288 1.448372 69.573764 35.173341 8.284463 9.447143 45.857297 23.007567 -29.915125 33.760343 -4.669344 0.000002 0.000001 -0.000002 0.000000 0.000000 -0.000000 -0.000000 0.000000 0.000000 
10.602673 14.095751 -31.930330 67.074476 74.988264 85.509369 -16.304393 1.183748 -1.449805 8.876211 -3.354266 -47.811423 6.693617 13.499779 55.610904 0.470216 -12.681117 -21.174271 -0.031954 10.502813 -26.049999 -13.224576 -7.830873 -3.594718 18.367617 24.825121 -65.801563 -10.715167 -21.343009 79.774340 -5.004509 9.926521 -7.320493 3.803877 -3.692553 13.883298 21.080703 0.501774 11.140535 -2.694752 -6.979859 -3.304361 -11.958888 -4.807467 27.213228 -5.782617 -3.764264 -27.979067 -2.222592 -2.889490 9.425629 36.316035 -17.769809 -5.496685 4.506029 19.905448 19.227253 -66.922999 -58.620091 -35.523219 -5.724794 -34.959636 30.980622 -9.912523 -30.529924 7.309532 0.000001 -0.000001 -0.000001 -0.000000 0.000000 -0.000000 0.000000 0.000000 0.000000 -17.691823 -6.622503 1.912448 70.199605 35.565538 8.012986 10.030512 45.570435 23.490774 -29.512347 34.292564 -4.609038 0.000002 0.000001 -0.000002 -0.000000 -0.000000 0.000000 0.000000 0.000000 -0.000000 
10.583003 14.125511 -32.031982 63.495852 74.864966 81.865875 -17.702281 -1.728263 -2.045182 12.398919 -0.725243 -45.612516 5.486944 16.355106 55.031746 0.830039 -12.744096 -22.026114 0.137422 10.116987 -25.947920 -12.936988 -7.580592 -4.029739 17.996766 23.951893 -65.771889 -10.887157 -22.183297 79.802122 -4.514465 9.973678 -6.700864 4.680861 -5.404461 13.634875 21.283216 0.584076 11.536735 -2.710151 -7.061086 -3.328486 -11.364431 -5.469123 25.830271 -6.493384 -3.848468 -26.501187 -2.401486 -2.882876 9.718904 37.575289 -18.265088 -6.151869 4.231513 18.413867 17.756055 -67.895450 -56.764393 -33.036800 -5.340057 -34.554328 31.546955 -9.884731 -31.035303 7.424071 0.000001 -0.000001 -0.000001 -0.000000 -0.000000 0.000000 -0.000000 0.000000 0.000000 -18.409405 -6.113325 2.714329 70.781215 34.990204 7.660211 10.340238 45.259326 24.223850 -29.939762 35.232861 -4.873337 0.000002 0.000001 -0.000002 0.000000 -0.000000 0.000000 0.000000 -0.000000 0.000000 
10.567973 14.156772 -32.117117 60.193718 74.786730 78.687574 -19.315319 -3.795182 -2.157063 15.389539 1.959299 -44.638796 4.301415 17.874718 54.724894 0.924661 -12.788003 -22.338607 0.613415 9.160429 -26.336363 -12.311918 -7.330892 -4.515183 17.483553 23.047052 -65.926929 -11.508715 -22.936582 79.930194 -4.991725 10.412663 -6.115705 7.526120 -10.833437 14.701354 21.435748 0.595352 11.668344 -2.760958 -6.872851 -3.323229 -11.117820 -5.603195 25.602728 -6.763782 -3.823504 -25.989746 -2.581809 -2.838123 10.077734 38.978824 -18.031766 -7.518709 4.121997 17.822606 18.877414 -67.451398 -58.877638 -32.909042 -5.981821 -33.943912 31.048132 -12.421061 -30.988773 8.156370 0.000001 -0.000001 -0.000001 -0.000000 0.000000 0.000000 0.000000 0.000000 0.000000 -18.198396 -6.240394 2.643082 71.327648 34.383013 7.508540 10.256529 44.975095 24.268266 -30.449345 35.213284 -5.039586 0.000002 0.000001 -0.000002 0.000000 -0.000000 0.000000 0.000000 0.000000 0.000000 
10.546712 14.163138 -32.198649 57.650012 74.244174 75.905940 -19.286079 -5.689610 -2.868434 15.481860 4.273959 -42.791382 3.917541 18.724186 54.575566 1.162934 -12.930374 -22.919918 0.542291 9.250390 -26.034817 -12.498421 -6.945523 -4.678783 17.079377 22.148636 -66.176498 -11.973181 -23.847819 80.305881 -5.115172 10.185344 -5.799229 8.634570 -12.938158 14.973079 21.049310 0.867112 12.054801 -2.725734 -6.735813 -3.288042 -11.130674 -5.206188 25.160313 -6.675637 -3.706556 -25.138991 -2.848410 -2.781920 10.657071 41.774784 -17.538608 -9.406105 4.919606 16.231109 18.557936 -68.169624 -59.349908 -30.269616 -5.602642 -33.846591 32.335158 -4.004726 -30.170960 5.567152 0.000001 -0.000001 -0.000001 -0.000000 0.000000 -0.000000 0.000000 0.000000 0.000000 -17.737047 -6.886790 2.882991 72.001647 33.440859 7.530004 10.298041 44.851324 24.680262 -30.972423 35.684442 -5.285674 0.000002 0.000001 -0.000002 -0.000000 0.000000 -0.000000 -0.000000 0.000000 0.000000 
10.522462 14.160165 -32.291892 54.650834 72.676283 71.912921 -18.299555 -9.294267 -4.770956 14.507534 7.836243 -37.572578 2.846157 19.846386 53.599332 2.075888 -12.207894 -24.299632 0.440455 9.399981 -25.702841 -13.633542 -6.423400 -4.919013 16.821231 21.518960 -65.547032 -12.909729 -24.955178 80.920207 -3.597658 9.534437 -5.577187 7.861381 -11.448644 11.815071 20.097881 1.249659 13.353429 -2.700018 -6.828442 -3.298970 -11.233077 -4.852055 25.286564 -6.822455 -3.824184 -24.995607 -3.424739 -2.811982 11.387665 43.174399 -17.848384 -10.122488 5.393102 15.820384 18.669483 -70.623091 -61.354130 -27.584554 -6.281903 -34.510685 28.403815 1.859710 -23.980276 2.788855 0.000001 -0.000001 -0.000001 -0.000000 0.000000 0.000000 0.000000 0.000000 0.000000 -17.973996 -7.773680 3.018490 72.866768 32.895106 7.637283 10.744889 44.938305 25.629244 -31.343240 36.980896 -5.597869 0.000002 0.000001 -0.000002 0.000000 -0.000000 0.000000 -0.000000 0.000000 -0.000000 
10.514520 14.162102 -32.369820 52.870657 71.081513 68.962338 -17.247595 -11.718226 -6.346858 13.184768 10.362867 -33.058774 1.596539 20.487937 52.438086 3.098182 -11.030660 -25.423710 0.451816 9.366378 -25.663672 -14.394719 -6.423112 -4.968503 16.954771 21.028159 -64.866547 -13.245753 -25.097041 81.617479 -4.504825 8.409126 -5.845553 5.675422 -7.619752 9.656362 19.083709 1.569473 14.516092 -2.718273 -6.929784 -3.241325 -11.313717 -4.560012 25.666923 -7.104485 -3.767389 -24.934838 -4.015637 -2.706969 12.176679 47.875410 -18.029729 -11.638601 5.519372 15.683247 20.064424 -72.221639 -64.848168 -27.777260 -8.692055 -34.744608 19.989184 -1.704295 -15.182833 2.433096 0.000001 -0.000001 -0.000001 -0.000000 0.000000 -0.000000 0.000000 -0.000000 0.000000 -17.993462 -8.616468 3.043367 73.694164 32.298191 7.469421 11.239847 44.925955 25.077586 -30.175817 36.002117 -5.067793 0.000002 0.000001 -0.000002 0.000000 0.000000 0.000000 -0.000000 -0.000000 0.000000 
10.510961 14.168709 -32.437538 51.138761 69.719865 66.250156 -16.603950 -13.419287 -7.439457 12.642422 12.257463 -29.523001 0.658470 21.532351 51.254159 3.289683 -10.517656 -25.911346 0.651668 9.022304 -26.075703 -14.681042 -6.408098 -5.119889 17.188171 20.415801 -64.317241 -14.309410 -24.934067 82.405712 -5.023041 7.881944 -5.919588 4.653914 -5.880962 9.215481 18.295969 1.918649 15.460573 -2.796955 -6.699172 -3.152253 -11.342703 -4.418453 25.260625 -7.419729 -3.724899 -23.997428 -4.639855 -2.595303 13.003118 52.493978 -18.231145 -12.883502 5.637241 14.465296 20.291937 -73.441390 -66.248824 -27.523399 -10.421615 -34.889342 13.396244 1.231859 -6.656679 0.870463 0.000001 -0.000001 -0.000001 -0.000000 0.000000 0.000000 0.000000 -0.000000 0.000000 -18.034889 -8.922838 3.258367 74.477032 30.956507 7.749971 11.019669 44.997697 24.140279 -28.651234 34.621671 -4.364271 0.000002 0.000001 -0.000002 -0.000000 0.000000 -0.000000 0.000000 -0.000000 -0.000000 
10.499595 14.187072 -32.500300 49.263745 68.470211 63.576309 -16.475562 -15.526305 -8.471196 13.264923 14.484833 -25.915749 -0.334142 22.834124 49.840789 3.292756 -10.234652 -25.876916 0.701758 8.987362 -26.414584 -14.827715 -5.955339 -5.459530 16.871221 19.725119 -63.743562 -15.130721 -25.161311 82.961837 -5.227569 7.143432 -6.041209 5.013609 -6.713059 7.514212 17.719173 2.236618 16.437843 -2.873138 -6.459927 -3.129811 -11.327188 -4.552189 24.861174 -7.668289 -3.932275 -23.229139 -5.080570 -2.676228 13.563542 52.410104 -18.651697 -12.895301 5.569804 13.613685 20.541202 -74.751308 -67.723304 -26.399821 -11.734303 -35.498569 6.384578 5.067865 2.537125 -0.301240 0.000001 -0.000001 -0.000001 0.000000 -0.000000 -0.000000 0.000000 0.000000 0.000000 -18.204944 -8.918660 3.362064 75.013428 29.665672 8.158759 10.701031 45.135068 24.029333 -29.029737 34.639627 -4.494593 0.000002 0.000001 -0.000002 -0.000000 0.000000 0.000000 -0.000000 0.000000 0.000000 
10.498949 14.198423 -32.555105 47.596393 67.328238 61.201107 -16.112257 -17.261012 -9.419869 13.518151 16.196450 -22.770858 -0.800718 24.039146 48.680593 3.349763 -10.020185 -25.666868 0.795695 8.860897 -26.741322 -15.275519 -5.619813 -5.693243 16.910467 19.392266 -63.123802 -13.656313 -24.870729 83.230133 -7.571322 4.235633 -6.915469 2.885574 -3.569351 4.822747 17.258277 2.620026 17.207907 -2.842592 -6.348831 -3.126025 -11.279497 -4.496452 24.782545 -7.684769 -4.114389 -22.841418 -4.916025 -2.843453 13.820721 52.375828 -18.742683 -13.308248 5.892141 13.181214 21.058104 -77.548430 -69.548323 -23.812098 -13.566546 -37.118804 4.105544 8.338640 5.555919 -0.524578 0.000001 -0.000001 -0.000001 -0.000000 0.000000 0.000000 -0.000000 -0.000000 -0.000000 -18.402019 -9.131121 3.306948 75.123382 28.226064 8.573083 10.851140 45.380839 23.974014 -30.244609 34.470121 -4.870679 0.000002 0.000001 -0.000002 -0.000000 0.000000 0.000000 -0.000000 -0.000000 0.000000 
10.500315 14.202658 -32.602102 46.364139 66.301621 59.206675 -15.346562 -18.328317 -10.285468 12.934731 17.485015 -20.265489 -0.903865 24.926495 47.795286 3.371565 -9.921898 -25.420553 0.834707 8.776747 -26.742254 -15.655580 -5.416240 -5.781147 17.093277 19.063378 -62.639955 -13.987349 -24.579825 83.732205 -8.410135 2.811414 -7.314456 0.996318 -1.232233 1.237286 16.791998 3.090952 17.895764 -2.796693 -6.070018 -3.085481 -11.327714 -4.304029 24.312737 -7.522191 -4.154660 -21.912097 -4.700229 -2.948473 14.176678 52.816529 -18.218940 -14.507086 6.553029 11.906064 21.190338 -79.852628 -70.535403 -20.724281 -14.662329 -38.832725 3.642190 11.055519 6.472876 -0.433591 0.000001 -0.000001 -0.000001 -0.000000 0.000000 0.000000 -0.000000 0.000000 0.000000 -18.359158 -9.329631 3.400659 75.224855 26.277314 8.930458 10.946636 45.605343 23.869432 -30.019606 34.165044 -4.757830 0.000002 0.000001 -0.000002 -0.000000 -0.000000 0.000000 0.000000 -0.000000 -0.000000 
